<svg width="38" height="38" viewBox="0 0 38 38" fill="none" xmlns="http://www.w3.org/2000/svg">
<path d="M19 0C8.50759 0 0 8.50759 0 19C0 29.4924 8.50759 38 19 38C29.4924 38 38 29.4924 38 19C38 8.50759 29.4924 0 19 0ZM15.6071 25.4464C15.6071 25.633 15.4545 25.7857 15.2679 25.7857H13.2321C13.0455 25.7857 12.8929 25.633 12.8929 25.4464V12.5536C12.8929 12.367 13.0455 12.2143 13.2321 12.2143H15.2679C15.4545 12.2143 15.6071 12.367 15.6071 12.5536V25.4464ZM25.1071 25.4464C25.1071 25.633 24.9545 25.7857 24.7679 25.7857H22.7321C22.5455 25.7857 22.3929 25.633 22.3929 25.4464V12.5536C22.3929 12.367 22.5455 12.2143 22.7321 12.2143H24.7679C24.9545 12.2143 25.1071 12.367 25.1071 12.5536V25.4464Z" fill="#61C1C9"/>
</svg>
