<svg width="32" height="32" viewBox="0 0 32 32" fill="none" xmlns="http://www.w3.org/2000/svg">
<path fill-rule="evenodd" clip-rule="evenodd" d="M13.5722 5.33333C13.2428 5.33333 12.9628 5.57382 12.9131 5.89938L12.4063 9.21916C12.4 9.26058 12.3745 9.29655 12.3378 9.31672C12.2386 9.37118 12.1408 9.42779 12.0444 9.48648C12.0086 9.5083 11.9646 9.51242 11.9255 9.49718L8.79569 8.27692C8.48893 8.15732 8.1408 8.27958 7.97617 8.56472L5.54907 12.7686C5.38441 13.0538 5.45268 13.4165 5.70977 13.6223L8.33305 15.7225C8.36577 15.7487 8.38419 15.7887 8.38328 15.8306C8.38206 15.8867 8.38145 15.9429 8.38145 15.9993C8.38145 16.0558 8.38207 16.1121 8.38329 16.1684C8.3842 16.2102 8.36579 16.2503 8.3331 16.2765L5.71027 18.3778C5.45331 18.5836 5.38512 18.9462 5.54975 19.2314L7.97685 23.4352C8.14152 23.7205 8.48978 23.8427 8.79658 23.723L11.9259 22.5016C11.965 22.4864 12.009 22.4905 12.0449 22.5123C12.1411 22.5709 12.2388 22.6274 12.3378 22.6818C12.3745 22.7019 12.4 22.7379 12.4063 22.7793L12.9131 26.0993C12.9628 26.4249 13.2428 26.6654 13.5722 26.6654H18.4264C18.7556 26.6654 19.0356 26.425 19.0854 26.0995L19.5933 22.7801C19.5997 22.7386 19.6251 22.7027 19.6618 22.6825C19.7614 22.6279 19.8596 22.5711 19.9564 22.5121C19.9922 22.4903 20.0362 22.4862 20.0753 22.5015L23.2034 23.7223C23.5102 23.842 23.8585 23.7198 24.0232 23.4346L26.4503 19.2307C26.6149 18.9456 26.5467 18.583 26.2897 18.3771L23.6679 16.2766C23.6352 16.2504 23.6168 16.2104 23.6177 16.1685C23.6189 16.1122 23.6195 16.0558 23.6195 15.9993C23.6195 15.9429 23.6189 15.8866 23.6177 15.8305C23.6168 15.7886 23.6352 15.7486 23.6679 15.7224L26.2902 13.623C26.5473 13.4172 26.6156 13.0544 26.4509 12.7692L24.0238 8.56537C23.8592 8.28023 23.5111 8.15797 23.2043 8.27757L20.0758 9.49734C20.0367 9.51258 19.9927 9.50846 19.9568 9.48664C19.8599 9.42762 19.7615 9.37071 19.6618 9.31596C19.6251 9.2958 19.5996 9.25984 19.5933 9.21843L19.0854 5.89915C19.0356 5.57369 18.7556 5.33333 18.4264 5.33333H13.5722ZM16 20.2854C18.3672 20.2854 20.2861 18.3664 20.2861 15.9993C20.2861 13.6322 18.3672 11.7132 16 11.7132C13.6329 11.7132 11.7139 13.6322 11.7139 15.9993C11.7139 18.3664 13.6329 20.2854 16 20.2854Z" fill="#F5F5F5"/>
</svg>
