<svg width="32" height="32" viewBox="0 0 32 32" fill="none" xmlns="http://www.w3.org/2000/svg">
<path d="M22.3258 15.8354C22.1264 15.8695 21.9257 15.7966 21.7827 15.6536L16.347 10.218C16.204 10.0749 16.1311 9.87422 16.1653 9.67483C16.3449 8.62476 16.84 7.61813 17.6506 6.80752C19.7334 4.72472 23.1103 4.72472 25.1931 6.80752C27.2759 8.89032 27.2759 12.2672 25.1931 14.35C24.3825 15.1606 23.3759 15.6557 22.3258 15.8354Z" fill="#F5F5F5"/>
<path d="M15.3387 12.9809C15.0614 12.7036 14.6059 12.7244 14.3549 13.0257L5.78731 23.3142C5.56672 23.5791 5.58445 23.9685 5.8282 24.2122L7.79211 26.1761C8.03592 26.42 8.42542 26.4376 8.6903 26.2169L18.9755 17.6459C19.2766 17.3949 19.2973 16.9395 19.0201 16.6623L15.3387 12.9809Z" fill="#F5F5F5"/>
</svg>
