<svg width="32" height="32" viewBox="0 0 32 32" fill="none" xmlns="http://www.w3.org/2000/svg">
<path d="M15.332 7.33333C14.9638 7.33333 14.6653 7.03486 14.6653 6.66667V4.66667C14.6653 4.29848 14.9638 4 15.332 4H16.6653C17.0335 4 17.332 4.29848 17.332 4.66667V6.66667C17.332 7.03486 17.0335 7.33333 16.6653 7.33333H15.332Z" fill="#F5F5F5"/>
<path d="M15.332 28C14.9638 28 14.6653 27.7015 14.6653 27.3333V25.3333C14.6653 24.9651 14.9638 24.6667 15.332 24.6667H16.6653C17.0335 24.6667 17.332 24.9651 17.332 25.3333V27.3333C17.332 27.7015 17.0335 28 16.6653 28H15.332Z" fill="#F5F5F5"/>
<path d="M7.24946 12.4883C7.56832 12.6724 7.97604 12.5631 8.16014 12.2443L8.82681 11.0896C9.0109 10.7707 8.90165 10.363 8.58279 10.1789L6.85074 9.17888C6.53188 8.99479 6.12415 9.10404 5.94005 9.4229L5.27339 10.5776C5.08929 10.8965 5.19854 11.3042 5.5174 11.4883L7.24946 12.4883Z" fill="#F5F5F5"/>
<path d="M26.058 22.5776C25.8739 22.8965 25.4662 23.0057 25.1473 22.8216L23.4153 21.8216C23.0964 21.6375 22.9872 21.2298 23.1712 20.9109L23.8379 19.7562C24.022 19.4374 24.4297 19.3281 24.7486 19.5122L26.4806 20.5122C26.7995 20.6963 26.9088 21.104 26.7247 21.4229L26.058 22.5776Z" fill="#F5F5F5"/>
<path d="M8.58279 21.8216C8.90165 21.6375 9.0109 21.2298 8.82681 20.9109L8.16014 19.7562C7.97604 19.4374 7.56832 19.3281 7.24946 19.5122L5.5174 20.5122C5.19854 20.6963 5.08929 21.104 5.27339 21.4229L5.94005 22.5776C6.12415 22.8965 6.53188 23.0057 6.85074 22.8216L8.58279 21.8216Z" fill="#F5F5F5"/>
<path d="M26.7247 10.5776C26.9088 10.8965 26.7995 11.3042 26.4806 11.4883L24.7486 12.4883C24.4297 12.6724 24.022 12.5631 23.8379 12.2443L23.1712 11.0896C22.9872 10.7707 23.0964 10.363 23.4153 10.1789L25.1473 9.17888C25.4662 8.99478 25.8739 9.10403 26.058 9.4229L26.7247 10.5776Z" fill="#F5F5F5"/>
<path d="M15.9999 10C12.6862 10 9.99995 12.6863 9.99995 16C9.99995 19.3137 12.6862 22 15.9999 22C19.3137 22 21.9999 19.3137 21.9999 16C21.9999 12.6863 19.3137 10 15.9999 10Z" fill="#F5F5F5"/>
</svg>
